<?xml version="1.0" standalone="no"?>
<!DOCTYPE svg PUBLIC "-//W3C//DTD SVG 20010904//EN"
 "http://www.w3.org/TR/2001/REC-SVG-20010904/DTD/svg10.dtd">
<svg version="1.0" xmlns="http://www.w3.org/2000/svg"
 width="777.000000pt" height="3375.000000pt" viewBox="0 0 777.000000 3375.000000"
 preserveAspectRatio="xMidYMid meet">

<g transform="translate(0.000000,3375.000000) scale(0.100000,-0.100000)"
fill="#043D5D" stroke="none">
<path d="M0 16875 l0 -16875 2134 0 2134 0 6 24 c3 14 18 31 34 38 15 7 28 23
30 35 2 13 14 25 33 32 16 5 29 17 29 25 0 9 12 22 28 30 19 10 31 28 41 60 7
25 18 46 23 46 13 0 47 41 48 58 0 6 6 12 13 12 19 0 47 33 47 53 0 10 8 17
21 17 13 0 23 10 30 29 7 19 19 31 32 33 15 2 23 12 27 33 3 17 14 34 27 41
13 6 34 23 47 37 14 15 29 27 35 27 5 0 13 10 17 22 3 12 21 36 38 53 68 67
152 168 164 196 6 16 19 29 28 29 9 0 21 13 26 28 7 17 23 33 40 40 18 7 28
17 28 31 0 13 9 25 23 30 16 7 27 23 37 61 10 37 21 55 36 61 13 4 24 18 26
31 2 13 11 24 23 27 24 4 35 19 35 49 0 16 6 22 24 22 20 0 25 7 36 59 10 49
17 61 34 63 14 2 22 12 26 33 4 22 11 31 28 33 13 2 25 9 26 15 20 73 31 96
47 100 10 3 22 19 27 38 5 24 15 35 29 37 15 2 23 12 25 29 2 17 14 32 33 43
24 13 32 26 39 63 7 33 14 47 26 47 23 0 40 20 40 47 0 18 6 23 25 23 16 0 25
6 25 15 0 37 26 95 42 95 12 0 21 13 28 39 8 29 16 40 33 43 18 2 23 12 30 55
7 43 12 52 30 55 15 2 24 12 28 33 10 53 20 73 39 78 11 3 22 18 25 33 11 50
14 54 35 54 11 0 20 7 20 15 0 37 26 95 42 95 9 0 19 10 23 23 19 73 30 97 41
97 11 0 41 40 36 48 -9 12 2 31 21 34 19 3 23 12 31 61 7 49 11 57 30 57 19 0
24 9 35 60 10 46 18 60 32 60 10 0 20 10 24 23 20 76 29 96 46 100 13 4 19 14
19 35 0 17 7 37 15 46 8 8 15 17 15 20 0 3 8 14 19 25 11 11 21 41 25 75 6 46
11 56 27 56 12 0 21 9 25 28 8 36 25 73 45 93 9 9 20 40 24 69 6 41 12 53 30
60 18 7 24 19 29 64 6 46 11 55 29 58 19 3 23 12 31 65 7 52 12 62 31 67 20 5
24 15 32 68 7 53 11 63 29 66 17 2 23 12 28 45 11 74 29 126 46 130 12 3 19
20 24 53 8 65 27 114 43 114 8 0 13 12 13 30 0 49 23 110 41 110 12 0 18 14
23 57 8 71 26 123 42 123 14 0 24 32 24 79 0 47 21 111 36 111 16 0 24 23 24
73 0 52 22 117 44 129 11 6 16 23 16 56 0 83 11 123 35 132 19 7 23 18 28 92
9 118 16 148 37 148 15 0 19 13 24 78 13 153 17 174 37 179 19 5 20 14 34 177
5 54 10 72 27 86 20 15 23 31 29 141 9 172 18 221 39 226 16 4 19 25 25 185 7
163 9 181 26 185 10 3 21 13 23 22 3 9 8 106 11 216 12 377 22 498 42 513 17
12 18 45 19 525 1 593 -3 710 -28 729 -14 11 -18 39 -23 183 -13 402 -17 455
-30 455 -7 0 -16 17 -20 38 -5 20 -10 44 -12 52 -2 8 -6 85 -9 170 -5 112 -10
158 -20 166 -25 20 -35 68 -41 188 -5 98 -9 122 -25 135 -12 10 -18 29 -18 56
0 23 -4 45 -9 50 -5 6 -11 51 -13 102 -2 69 -7 95 -19 105 -25 20 -37 66 -44
167 -8 105 -11 121 -30 121 -18 0 -22 18 -30 123 -5 66 -10 87 -21 87 -19 0
-31 34 -40 112 -3 34 -11 68 -18 73 -18 16 -37 81 -42 143 -8 85 -12 99 -33
105 -20 5 -26 28 -37 140 -4 38 -11 67 -18 67 -18 0 -36 51 -43 117 -3 36 -11
63 -17 63 -17 0 -35 48 -42 115 -3 33 -11 65 -18 70 -19 18 -34 51 -41 91 -12
74 -15 82 -33 87 -15 3 -22 20 -31 83 -7 52 -17 84 -29 94 -17 15 -42 82 -42
114 0 9 -11 33 -24 54 -13 20 -27 57 -31 81 -4 26 -17 53 -30 65 -12 12 -25
39 -29 61 -11 61 -16 75 -30 75 -7 0 -20 30 -30 73 -9 39 -26 83 -36 97 -11
14 -20 33 -20 42 0 9 -4 20 -10 23 -5 3 -10 16 -10 27 0 11 -8 28 -18 37 -10
9 -24 36 -31 61 -18 60 -43 113 -58 123 -7 4 -13 16 -13 27 0 28 -11 50 -24
50 -11 0 -25 38 -42 113 -3 15 -10 27 -15 27 -5 0 -9 6 -9 14 0 8 -6 16 -14
19 -7 3 -16 23 -20 44 -3 21 -19 53 -36 72 -19 21 -30 45 -30 63 0 19 -11 41
-30 61 -19 20 -30 43 -30 60 0 20 -6 30 -19 34 -17 4 -25 23 -47 102 -4 14
-17 36 -29 49 -13 14 -26 40 -30 59 -4 24 -11 33 -25 33 -15 0 -20 7 -20 24 0
14 -4 28 -10 31 -6 3 -10 17 -10 30 0 14 -9 29 -20 35 -11 6 -20 17 -20 25 0
9 -4 23 -9 33 -5 9 -14 29 -20 45 -6 15 -17 27 -25 27 -8 0 -16 16 -20 41 -4
22 -17 51 -29 63 -12 12 -29 41 -36 64 -8 23 -25 51 -37 63 -13 13 -24 30 -24
39 0 9 -14 35 -31 58 -17 23 -34 54 -38 69 -5 18 -15 29 -29 31 -22 3 -26 12
-37 75 -4 23 -15 43 -29 52 -13 9 -26 29 -30 46 -3 16 -17 41 -30 56 -14 15
-28 40 -32 56 -3 17 -14 32 -25 34 -10 3 -19 11 -19 17 0 22 -39 93 -54 99 -8
3 -20 24 -27 47 -7 22 -23 51 -35 63 -12 13 -26 35 -29 50 -4 14 -16 29 -26
32 -10 4 -19 13 -19 21 0 19 -19 53 -52 89 -14 17 -28 39 -30 50 -2 11 -12 24
-24 29 -11 5 -25 25 -31 46 -15 47 -74 139 -91 139 -7 1 -15 9 -18 19 -15 45
-35 79 -58 101 -14 14 -26 32 -26 42 0 10 -8 24 -19 31 -10 7 -27 31 -39 54
-11 22 -28 46 -37 54 -9 7 -22 28 -30 47 -8 18 -19 33 -24 33 -6 0 -19 19 -30
43 -11 23 -31 53 -45 66 -14 14 -26 32 -26 41 0 9 -11 22 -25 28 -14 6 -25 19
-25 28 0 10 -26 51 -58 92 -31 41 -64 86 -72 101 -8 14 -22 33 -30 41 -8 8
-21 27 -29 41 -7 15 -23 37 -36 51 -12 13 -28 35 -35 48 -7 14 -24 33 -37 43
-12 10 -23 25 -23 32 0 8 -11 27 -25 42 -42 47 -45 52 -45 63 0 5 -4 10 -9 10
-5 0 -24 23 -42 50 -18 28 -36 50 -40 50 -5 0 -18 18 -29 40 -11 22 -25 40
-30 40 -5 0 -17 14 -27 30 -9 17 -25 30 -35 30 -11 0 -18 7 -18 19 0 24 -21
65 -49 94 -51 53 -72 80 -86 107 -15 29 -28 45 -100 124 -19 22 -35 45 -35 52
0 7 -9 16 -20 19 -11 4 -27 21 -34 40 -8 18 -24 36 -35 40 -12 3 -21 14 -21
24 0 9 -8 26 -18 37 -9 10 -41 48 -69 84 -29 36 -64 79 -78 95 -41 48 -75 92
-75 99 0 3 -8 14 -18 24 -30 31 -72 86 -72 93 0 4 -14 22 -30 41 -58 64 -70
79 -70 87 0 13 -36 41 -53 41 -10 0 -17 8 -17 20 0 28 -20 68 -52 104 -59 66
-68 77 -68 88 0 10 -46 77 -60 88 -4 3 -13 16 -20 30 -7 14 -21 30 -30 37 -10
7 -23 27 -31 45 -7 18 -26 47 -41 63 -15 17 -28 35 -28 42 0 6 -9 18 -20 26
-11 7 -27 29 -35 48 -9 19 -36 61 -60 94 -25 33 -54 77 -65 97 -11 21 -25 38
-30 38 -6 0 -10 6 -10 13 -1 16 -35 57 -49 57 -6 0 -11 7 -11 16 0 24 -30 84
-62 125 -15 20 -28 42 -28 48 0 6 -11 21 -25 33 -14 12 -25 26 -25 31 0 5 -28
56 -63 114 -34 57 -68 116 -76 131 -8 15 -17 29 -21 32 -4 3 -15 22 -25 43
-10 21 -24 37 -34 37 -12 0 -21 15 -29 47 -7 26 -29 73 -48 104 -18 31 -34 62
-34 68 0 6 -9 16 -20 23 -11 7 -20 18 -20 25 0 13 -83 173 -110 213 -10 14
-23 42 -31 62 -7 21 -23 49 -36 64 -12 15 -25 42 -29 60 -3 19 -9 34 -13 34
-9 0 -51 82 -51 99 0 7 -11 27 -24 44 -13 18 -28 47 -35 66 -6 19 -22 48 -34
65 -13 17 -27 46 -30 64 -4 19 -15 46 -25 60 -10 15 -25 43 -32 62 -7 19 -22
47 -32 62 -10 15 -25 48 -33 73 -7 26 -20 54 -27 63 -8 10 -20 35 -27 57 -7
22 -28 72 -47 112 -19 39 -34 76 -34 81 0 4 -13 36 -30 70 -16 34 -30 68 -30
75 0 6 -14 39 -30 72 -16 33 -30 68 -30 78 0 9 -11 35 -24 56 -14 21 -28 56
-31 77 -4 22 -13 48 -20 59 -14 23 -55 139 -55 156 0 6 -8 23 -19 37 -17 25
-23 42 -37 112 -3 14 -14 41 -24 61 -11 20 -26 62 -34 95 -16 61 -42 144 -56
179 -5 11 -12 35 -16 54 -3 19 -14 48 -23 65 -9 17 -23 63 -30 101 -8 39 -17
75 -21 80 -9 12 -40 116 -51 170 -4 22 -17 67 -29 100 -12 33 -24 85 -27 115
-3 30 -11 61 -17 69 -11 14 -27 77 -46 189 -6 35 -15 71 -20 80 -12 23 -37
142 -46 220 -4 34 -10 65 -15 67 -4 3 -11 27 -15 53 -3 26 -13 72 -20 102 -8
30 -14 75 -14 101 0 26 -7 63 -15 82 -8 20 -15 51 -15 70 0 18 -4 37 -9 43 -6
5 -13 56 -16 114 -4 58 -13 128 -21 157 -8 28 -14 69 -14 91 0 22 -7 76 -15
119 -8 43 -15 105 -15 138 -1 33 -5 92 -11 130 -38 258 -58 639 -58 1155 -1
566 21 1102 49 1195 5 17 14 111 21 210 6 99 15 184 20 190 5 5 9 30 9 55 0
25 5 61 11 80 6 19 14 78 19 130 16 161 27 233 44 280 9 25 16 63 16 85 1 22
5 60 11 85 5 25 14 73 19 108 6 34 14 70 19 80 5 9 16 60 24 112 9 52 21 115
27 140 6 25 18 79 26 120 7 41 18 85 24 98 5 13 10 34 10 47 0 13 6 39 14 57
8 18 19 67 25 108 7 41 21 93 31 116 11 22 20 50 20 62 0 26 39 173 50 187 4
6 13 42 20 80 7 39 21 89 31 112 10 23 24 64 29 90 16 69 41 142 51 149 5 3 9
17 9 32 0 28 35 138 50 157 4 6 10 29 14 53 3 24 10 51 15 60 20 42 40 93 62
162 13 41 29 86 36 100 7 14 13 33 13 42 0 9 4 19 9 22 5 3 12 18 15 33 4 16
13 42 20 58 8 17 20 50 27 75 7 25 20 59 30 75 9 17 20 46 24 65 4 19 18 55
31 79 13 24 24 48 24 53 0 8 16 46 56 135 8 17 14 37 14 45 0 7 14 40 30 71
17 32 30 65 30 72 0 18 41 99 52 103 4 2 8 11 8 20 0 26 24 89 41 109 9 10 22
38 29 63 8 25 21 56 30 70 10 14 23 43 30 65 7 22 24 57 37 77 12 21 23 42 23
48 0 20 40 100 50 100 6 0 10 8 10 18 0 9 11 37 25 62 13 25 43 83 66 130 23
47 45 92 50 100 20 34 79 161 79 169 0 5 6 11 14 14 7 3 16 18 20 33 4 15 17
41 30 58 13 17 28 46 34 64 6 18 21 46 33 63 12 17 39 65 61 107 22 42 48 91
59 107 10 17 24 41 29 55 6 13 14 27 18 30 4 3 13 16 20 30 7 14 26 48 42 75
16 28 38 66 47 85 10 19 28 48 40 63 13 16 23 33 23 39 0 5 16 33 35 62 19 29
35 57 35 62 0 5 10 20 23 34 21 23 47 79 47 101 0 5 -612 9 -1360 9 l-1360 0
0 -16875z"/>
</g>
</svg>
